<?xml version="1.0" encoding="UTF-8" standalone="no"?>
<!-- Created with Inkscape (http://www.inkscape.org/) -->

<svg
   width="3.1242542in"
   height="10.614429in"
   viewBox="0 0 299.92841 1018.9852"
   version="1.1"
   id="svg1"
   xml:space="preserve"
   inkscape:version="1.3.2 (091e20ef0f, 2023-11-25)"
   sodipodi:docname="makima.svg"
   xmlns:inkscape="http://www.inkscape.org/namespaces/inkscape"
   xmlns:sodipodi="http://sodipodi.sourceforge.net/DTD/sodipodi-0.dtd"
   xmlns="http://www.w3.org/2000/svg"
   xmlns:svg="http://www.w3.org/2000/svg"><sodipodi:namedview
     id="namedview1"
     pagecolor="#ffffff"
     bordercolor="#999999"
     borderopacity="1"
     inkscape:showpageshadow="2"
     inkscape:pageopacity="0"
     inkscape:pagecheckerboard="0"
     inkscape:deskcolor="#d1d1d1"
     inkscape:document-units="in"
     inkscape:zoom="0.47158101"
     inkscape:cx="139.95474"
     inkscape:cy="459.09397"
     inkscape:window-width="1280"
     inkscape:window-height="781"
     inkscape:window-x="0"
     inkscape:window-y="0"
     inkscape:window-maximized="1"
     inkscape:current-layer="layer1" /><defs
     id="defs1" /><g
     inkscape:label="Layer 1"
     inkscape:groupmode="layer"
     id="layer1"><path
       style="fill:#550038;fill-opacity:1"
       d="m 213.04915,1018.1845 c 0,-0.4404 -2.03704,-1.7904 -4.52675,-3 -5.05943,-2.4581 -10.92144,-2.788 -19.93436,-1.1219 -4.18274,0.7733 -7.69346,0.7693 -12.43366,-0.014 -11.01199,-1.8196 -20.24068,-4.2528 -20.70333,-5.4585 -0.24066,-0.6271 -0.0697,-3.8323 0.37995,-7.1226 l 0.81752,-5.98227 -18.54968,-0.044 c -13.86981,-0.033 -20.06342,-0.454 -24.54969,-1.6677 -16.131326,-4.3645 -24.870296,-9.362 -30.066456,-17.1939 -2.85689,-4.30608 -3.70231,-7.01862 -5.46653,-17.53953 -2.20062,-13.12328 -5.1,-22.87583 -7.20607,-24.23882 -0.69352,-0.44882 -2.84582,-1.25563 -4.78291,-1.79292 -3.49718,-0.97 -3.53936,-1.0492 -5.99119,-11.24973 -4.83174,-20.10177 -2.82198,-26.7755 9.82816,-32.63602 2.02675,-0.93895 6.23229,-3.36696 9.34564,-5.39558 3.11336,-2.02861 7.27586,-4.45863 9.25,-5.40004 1.97415,-0.9414 3.58936,-2.17183 3.58936,-2.73427 0,-0.56244 1.63903,-2.70115 3.64229,-4.75267 3.61611,-3.70323 3.64092,-3.787 3.45132,-11.65353 l -0.19097,-7.92349 6.654206,-5.38863 c 9.02677,-7.30995 10.87953,-11.09405 23.93661,-48.88863 5.32529,-15.41439 9.55295,-25.58984 13.49354,-32.47728 2.00028,-3.49612 3.53413,-8.25497 4.55936,-14.14564 0.84975,-4.88239 2.46605,-12.47708 3.59178,-16.87708 1.82269,-7.12415 1.90614,-8.58958 0.76217,-13.3852 -1.21562,-5.09602 -1.16995,-5.47804 0.85056,-7.11415 2.04018,-1.65204 2.07097,-1.94224 0.69215,-6.52373 -1.83967,-6.11275 -1.82442,-8.91549 0.057,-10.47692 1.81785,-1.50868 1.92927,-4.33977 0.27504,-6.98861 -0.86255,-1.38117 -0.91148,-2.27495 -0.16538,-3.02105 1.43922,-1.43922 -1.76135,-10.81651 -4.40791,-12.91464 -2.28347,-1.81028 -4.71252,-11.07112 -5.65915,-21.5757 -0.34695,-3.85 -1.46027,-10.6 -2.47404,-15 -1.01378,-4.4 -3.48749,-15.2 -5.49713,-24 -8.87165,-38.84786 -10.70969,-45.50459 -12.16326,-44.05102 -0.75269,0.75269 -3.18332,1.67513 -5.40139,2.04987 -2.3168,0.39143 -4.43946,1.44112 -4.98843,2.46686 -0.52557,0.98204 -3.27703,3.27519 -6.11437,5.09591 -4.91123,3.15153 -5.22334,3.22211 -6.50387,1.47089 -1.220806,-1.66956 -1.403686,-1.68674 -1.979576,-0.18601 -0.78969,2.05792 -4.28406,2.1727 -5.0541,0.16601 -0.31394,-0.81812 -0.0995,-2.83934 0.47644,-4.4916 0.7863,-2.25557 0.71352,-3.64736 -0.29207,-5.58563 -1.36124,-2.62381 -0.82056,-6.52933 2.41285,-17.42868 0.56999,-1.92137 1.03635,-4.92911 1.03635,-6.68386 0,-1.75476 1.07422,-8.73273 2.38714,-15.5066 5.239576,-27.03294 5.837516,-36.36323 3.480916,-54.31614 -0.57757,-4.4 -1.05416,-9.43348 -1.05909,-11.18551 -0.005,-1.85039 -0.8053,-3.90619 -1.908966,-4.90499 -1.045,-0.94571 -1.89688,-2.88723 -1.89308,-4.31449 0.004,-1.42725 -0.94558,-6.73118 -2.10975,-11.7865 l -2.11667,-9.1915 2.14952,-3.01873 2.14953,-3.01873 -2.06912,-2.06913 c -1.24897,-1.24897 -2.06126,-3.34571 -2.04927,-5.28977 0.0287,-4.66249 -0.51233,-8.60516 -1.28726,-9.38008 -0.37064,-0.37065 -0.6739,-1.6688 -0.6739,-2.88479 0,-1.21599 -0.675,-2.77109 -1.5,-3.45578 -1.67163,-1.38733 -1.99758,-5.0879 -0.57692,-6.55 1.70822,-1.75806 -0.18176,-6.70326 -3.96513,-10.3749 -3.60437,-3.49792 -3.85981,-4.20174 -6.35661,-17.51447 -1.66654,-8.88587 -2.60134,-17.34604 -2.60134,-23.54292 0,-9.12202 -0.2332,-10.20937 -4.0954,-19.09526 l -4.09541,-9.42295 1.66024,-20 c 1.62831,-19.61531 3.99312,-43.08024 5.1398,-51 l 0.57915,-4 -2.09466,3.27493 c -2.65234,4.14684 -6.19764,5.5665 -10.7572,4.30755 -2.79296,-0.77118 -4.07506,-0.57929 -6.77561,1.01407 -2.68381,1.58349 -4.08158,1.79694 -7.19587,1.09885 -2.12578,-0.47651 -4.38638,-0.69164 -5.02356,-0.47806 -0.63717,0.21358 -2.3523,2.82837 -3.81139,5.81066 -4.38346,8.95946 -19.061,18.86379 -24.02103,16.20927 -1.93557,-1.03589 -1.91877,-1.10186 0.49359,-1.93874 1.37353,-0.4765 3.26668,-1.92418 4.207,-3.21708 l 1.70967,-2.35073 -3.95967,0.88968 c -4.93699,1.10927 -10.91943,-0.15466 -15.50192,-3.27513 -3.58388003,-2.44046 -4.84431,-5.59132 -1.76381,-4.40922 1.59191,0.61087 1.59191,0.53729 0,-1.22176 -0.93167003,-1.02947 -1.69394003,-2.67632 -1.69394003,-3.65966 0,-1.40827 0.47775,-1.62965 2.25000003,-1.04262 3.86959,1.28175 11.75,1.74646 11.75,0.69291 0,-0.54346 -1.09372,-1.26261 -2.4305,-1.59812 -4.05471,-1.01767 -9.574,-6.93462 -9.53769,-10.22488 0.0289,-2.61754 0.15431,-2.7205 1.36724,-1.12235 1.15967,1.52799 1.66684,1.58764 3.85339,0.45324 2.25167,-1.16818 2.37147,-1.50667 1.13276,-3.2007 -1.37009,-1.87371 -1.91177,-5.51211 -0.82064,-5.51211 0.31051,0 1.70051,1.35 3.0889,3 2.1738,2.58342 3.20628,3 7.43544,3 2.70111,0 4.9111,-0.3085 4.9111,-0.68555 0,-0.37705 -0.93688,-1.68282 -2.08197,-2.90171 -2.27393,-2.42048 -3.89889,-10.41274 -2.11708,-10.41274 0.58535,0 1.34484,0.88397 1.68775,1.96438 1.67159,5.26673 17.81361,15.02661 22.42964,13.56154 0.92557,-0.29376 2.24203,-2.0805 2.92547,-3.97052 0.68344,-1.89003 2.58339,-4.87171 4.2221,-6.62596 2.93807,-3.14521 3.0834,-3.18287 10.45679,-2.70968 l 7.4773,0.47987 v -3.38194 c 0,-7.27486 4.20931,-12.60955 11.02509,-13.97271 1.65909,-0.33182 3.25433,-0.98808 3.54498,-1.45835 0.29065,-0.47028 1.42299,-9.29966 2.51632,-19.62084 2.27468,-21.47336 4.11825,-27.93879 10.4835,-36.76579 7.747746,-10.74418 8.055006,-10.91014 20.287366,-10.95819 l 10.64274,-0.0418 1.63557,-3.60362 c 1.23452,-2.71998 2.76835,-4.06862 6.25525,-5.5 3.30238,-1.35563 4.45564,-2.3241 4.0444,-3.39638 -2.53838,-6.61866 -1.49475,-12.60224 3.00639,-17.23691 l 3.40063,-3.50151 -4.36167,-4.28065 c -5.60225,-5.498186 -10.0223,-13.856996 -11.41608,-21.589086 -2.9523,-16.378044 7.0769,-51.419115 19.03991,-66.523652 3.20354,-4.044798 14.93809,-11.7918197 21.1456,-13.9600907 2.0625,-0.720428 3.75,-1.669469 3.75,-2.10898 0,-1.012845 35.71679,-1.061346 36.16667,-0.04911 0.18333,0.4125 4.13556,2.021699 8.78273,3.575997 4.70776,1.574567 11.06526,4.660928 14.35659,6.9696607 7.18473,5.039805 15.75174,15.106883 19.74672,23.204342 3.09073,6.264619 5.9002,17.441535 5.92993,23.591069 0.0286,5.918551 -2.63939,12.971005 -6.36107,16.814485 l -3.48053,3.594444 -1.62903,21.999991 c -2.95271,39.87654 -6.15449,61.78492 -10.69468,73.17917 l -2.31938,5.82083 2.09521,2.2379 c 2.51862,2.69015 5.40684,11.18321 5.40684,15.89928 0,2.55566 0.96326,4.46438 3.85319,7.63516 6.23677,6.84288 11.28166,13.87906 13.78608,19.22766 3.09736,6.61492 3.06038,14.13182 -0.13927,28.30607 -1.375,6.09117 -2.52682,13.91415 -2.55961,17.38439 -0.0328,3.47025 -0.4532,8.55954 -0.93426,11.30954 -0.53116,3.0364 -0.45034,10.61211 0.20581,19.29034 0.79942,10.5732 0.78408,15.27958 -0.059,18.09342 -0.94513,3.15455 -0.80355,5.06611 0.83026,11.20966 1.08333,4.07362 1.98028,8.18535 1.99323,9.13719 0.0129,0.95183 -2.22647,3.41039 -4.97647,5.46345 l -5,3.73285 v 7.97635 c 0,4.38699 0.44148,10.47844 0.98107,13.53654 0.53958,3.05811 1.68691,13.4352 2.54961,23.0602 0.86271,9.625 2.72566,25.79867 4.1399,35.94148 1.85303,13.28978 2.27976,18.9084 1.52755,20.11288 -0.77758,1.2451 -0.63997,2.07522 0.5395,3.2547 1.35554,1.35554 1.43556,2.63618 0.55626,8.90247 -0.59542,4.24317 -0.69247,9.83431 -0.23094,13.30382 0.43787,3.29156 1.84033,18.35965 3.11659,33.48465 1.99351,23.62531 2.31899,33.91086 2.30998,73 -0.0111,48.32647 -0.54173,57.77702 -5.4273,96.6671 l -2.78475,22.1671 -7.58519,11.3329 c -4.17186,6.23309 -11.54679,17.21529 -16.38874,24.40489 -4.84194,7.18959 -10.4683,16.41459 -12.50301,20.5 -4.33487,8.70379 -4.28956,8.12411 -5.38849,68.92801 -0.71776,39.71374 0.1526,56.46331 3.57183,68.73734 1.10887,3.98054 2.00625,8.25554 1.99417,9.5 -0.0311,3.20677 -3.64017,10.78571 -6.62201,13.90612 l -2.52607,2.64347 4.54337,3.12592 c 5.14984,3.54318 5.50975,4.45009 8.25086,20.79059 l 1.81115,10.79656 6.38542,7.68256 c 3.51198,4.22541 7.04256,7.93473 7.84573,8.24294 0.80318,0.30821 1.20559,0.97253 0.89425,1.47629 -1.78497,2.88814 22.97351,15.09297 36.78088,18.13137 10.93288,2.4059 17.39569,5.2961 18.8167,8.4148 0.62988,1.3825 2.00097,2.78516 3.04686,3.11706 1.53948,0.4886 1.84384,1.3969 1.59824,4.7692 l -0.30338,4.1657 -8.38167,2.1972 c -4.60992,1.2084 -12.59742,2.7487 -17.75,3.4228 -5.15258,0.6741 -9.36833,1.5979 -9.36833,2.0528 0,0.455 -11.475,0.8272 -25.5,0.8272 -14.025,0 -25.5,-0.3603 -25.5,-0.8007 z m -53.62546,-46.44923 c 0.32842,-1.7875 0.67429,-8.9258 0.7686,-15.86289 l 0.17147,-12.6129 -3.11364,-3.8871 c -2.9129,-3.6365 -3.05018,-4.16768 -2.12939,-8.23892 0.70051,-3.09729 0.64123,-5.3004 -0.20564,-7.64238 -0.96336,-2.66413 -0.89164,-4.40571 0.37675,-9.14819 3.16876,-11.84798 3.10684,-12.28763 -0.82498,-5.85762 -2.01789,3.3 -5.97472,10.63212 -8.79297,16.29361 -5.46175,10.97196 -7.3416,12.56768 -12.19848,10.35474 -2.38906,-1.08852 -2.42936,-1.02531 -2.62855,4.12309 -0.11126,2.87571 -0.28213,7.25356 -0.37971,9.72856 -0.12886,3.26829 0.33708,4.98966 1.70229,6.28896 1.03384,0.98392 1.87971,2.25081 1.87971,2.81531 0,0.56449 2.3625,3.41413 5.25,6.33252 4.10295,4.14684 6.49518,5.66485 10.94911,6.94783 3.1345,0.90291 5.97356,2.08575 6.30901,2.62852 1.15239,1.86461 2.27018,0.98207 2.86642,-2.26314 z M 109.47826,563.3332 c 1.43005,-2.55864 2.44126,-4.81089 2.24715,-5.00501 -0.19412,-0.19412 -1.57878,1.89931 -3.07701,4.65207 -1.49824,2.75276 -2.50946,5.00501 -2.24715,5.00501 0.2623,0 1.64696,-2.09343 3.07701,-4.65207 z m 7.92285,-10.05978 c 0.34432,-2.08348 0.6111,-5.36315 0.59284,-7.28815 l -0.0332,-3.5 -1.85936,3.51544 c -1.02264,1.93349 -2.18589,5.69294 -2.58499,8.35432 -0.69256,4.61834 -0.63483,4.79029 1.26652,3.77272 1.21355,-0.64947 2.23683,-2.54672 2.61818,-4.85433 z m -7.84923,1.21185 c 0.002,-0.55 1.52223,-4.4817 3.37941,-8.73712 l 3.37669,-7.73711 -1.68639,-9.26289 c -1.75266,-9.62687 -5.74614,-24.46395 -7.36153,-27.3505 -0.80729,-1.44254 -1.00922,-1.34791 -1.51935,0.71199 -0.32357,1.3066 -1.08288,6.42563 -1.68734,11.37563 -0.60447,4.95 -1.50113,10.575 -1.9926,12.5 -3.204726,12.55262 -4.964876,26.70718 -3.184236,25.60669 0.55626,-0.34379 1.675416,0.039 2.487006,0.85055 1.30083,1.30084 1.55815,1.03541 2.17228,-2.24081 0.8578,-4.57608 3.35234,-10.71076 4.06537,-9.99773 0.28918,0.28919 -0.39173,3.83673 -1.51313,7.88344 -1.1214,4.04672 -2.03891,7.5091 -2.03891,7.69418 0,0.18509 1.2375,0.19413 2.75,0.0201 1.5125,-0.17403 2.75123,-0.76642 2.75273,-1.31642 z m -0.52091,-70.84971 c -1.27981,-9.87694 -2.06371,-12.93044 -3.91502,-15.25 -1.69373,-2.12213 -2.15506,-2.36368 -1.71944,-0.90029 0.90143,3.02819 2.69432,23.62355 2.13525,24.52814 -0.97503,1.57763 0.78238,3.97186 2.91541,3.97186 h 2.18403 z m -5.40427,-30.07087 c -2.208,-4.99266 -2.31658,-5.74233 -0.9099,-6.28212 0.87851,-0.33712 2.43767,-0.0881 3.46482,0.55335 1.6087,1.00465 1.86753,0.86448 1.86753,-1.01132 0,-1.64762 -4.73541,-11.58413 -6.49407,-13.62677 -0.60288,-0.70023 -5.505926,2.22865 -5.505926,3.28902 0,0.64931 0.67013,3.38958 1.48918,6.08949 0.81905,2.69991 1.49405,6.82143 1.5,9.15893 0.008,3.11858 0.41275,4.25 1.520606,4.25 0.83038,0 2.26886,0.88653 3.19661,1.97006 2.63263,3.07469 2.59424,1.76677 -0.12885,-4.39064 z m 5.71091,-36.73379 c 3.34848,-1.79206 0.20129,-3.26053 -7.30092,-3.40658 -7.508316,-0.14617 -8.849806,0.87447 -3.890246,2.95981 3.841226,1.61512 8.649416,1.80706 11.191166,0.44677 z m 12.51299,-18.04748 2.96139,-7.70186 -5.13142,-0.29814 c -3.79497,-0.2205 -7.94081,0.63233 -15.91836,3.27451 -11.555976,3.82736 -14.410436,5.6676 -13.296006,8.57177 0.57173,1.48989 0.84198,1.55449 1.57065,0.37548 0.59309,-0.95964 2.93986,-1.47228 7.1962,-1.57197 3.473856,-0.0814 7.761426,-0.75761 9.527936,-1.50277 3.25116,-1.37142 5.01739,-0.9341 3.8508,0.95347 -0.35069,0.56744 -3.88325,2.73488 -7.85013,4.81653 l -7.212506,3.78483 7.499996,0.5 c 10.43719,0.69581 12.84367,-0.90864 16.80145,-11.20185 z m -23.301446,-5.03691 c 4.613776,-1.59052 5.114386,-2.57715 1.923246,-3.79042 -3.522586,-1.33929 -9.423246,-0.40458 -9.423246,1.49271 0,2.90147 1.26125,4.65013 2.87905,3.99166 0.89152,-0.36287 2.97095,-1.12514 4.62095,-1.69395 z m -5.5,-0.26124 c 0,-0.275 0.225,-0.5 0.5,-0.5 0.275,0 0.5,0.225 0.5,0.5 0,0.275 -0.225,0.5 -0.5,0.5 -0.275,0 -0.5,-0.225 -0.5,-0.5 z m 32.999996,-5.90913 c 0,-1.68009 -4.23903,-3.4816 -9.5,-4.03732 -2.2,-0.23239 -5.0125,-0.72949 -6.25,-1.10467 -4.45409,-1.35037 -2.06756,1.10591 3.53055,3.63373 6.44325,2.90944 12.21945,3.6224 12.21945,1.50826 z m -38.270246,-8.77929 c 3.05006,-3.50618 16.302476,-4.88052 21.440606,-2.22349 1.68907,0.87346 4.47922,1.76222 6.20034,1.97504 l 3.1293,0.38693 -3.61917,-3.22503 c -1.99055,-1.77377 -5.30348,-5.35792 -7.36207,-7.96479 -2.05859,-2.60686 -4.21199,-4.44983 -4.78533,-4.09549 -0.57335,0.35435 -0.74913,0.16967 -0.39063,-0.41039 0.35849,-0.58006 -1.97353,-5.26208 -5.182276,-10.4045 -10.91468,-17.49213 -11.06906,-17.96322 -5.06406,-15.45383 5.79679,2.42239 8.441926,5.21196 13.510096,14.24779 3.94856,7.03975 6.03338,9.56391 10.79708,13.07238 3.24701,2.39142 6.39701,4.18396 7,3.98342 1.65435,-0.55019 2.3023,-5.72073 1.25423,-10.00847 -0.70192,-2.87159 -2.55841,-5.24235 -7.54444,-9.63435 -3.63739,-3.20402 -10.54639,-9.28191 -15.35334,-13.5064 -5.486466,-4.82169 -9.208966,-7.41081 -9.999996,-6.95533 -0.69305,0.39907 -0.93223,0.36308 -0.53153,-0.08 0.40071,-0.44306 -0.78919,-2.8777 -2.64422,-5.41033 -4.14897,-5.66446 -8.87412,-14.92679 -11.05596,-21.6721 -2.03268,-6.28412 -1.76817,-16.93264 0.42061,-16.93264 1.04143,0 1.89157,2.53144 3.02249,9 0.86543,4.95 3.31596,13.63545 5.44564,19.30099 3.63745,9.67666 4.28394,10.67684 10.66648,16.50206 8.276266,7.5536 17.532876,12.88207 18.819096,10.83302 0.49847,-0.79409 0.32933,-3.36109 -0.40483,-6.14415 -0.69355,-2.62912 -1.04802,-5.89432 -0.78771,-7.25601 0.42917,-2.24509 -0.30408,-2.85927 -7.86844,-6.59064 -8.216166,-4.0529 -13.584726,-7.73559 -12.645706,-8.67461 0.26363,-0.26363 1.78988,0.16443 3.39166,0.95125 1.60178,0.78683 4.599826,1.73886 6.662326,2.11563 5.22387,0.95428 5.06313,-1.64165 -0.25,-4.03754 -2.2,-0.99206 -4,-2.1487 -4,-2.57031 0,-2.14083 7.01469,-4.92969 12.39942,-4.92969 4.22153,0 5.81659,-0.39932 6.26524,-1.5685 0.33104,-0.86268 -1.21875,-5.47518 -3.44399,-10.25 -11.76605,-25.24713 -14.41651,-33.11713 -17.728116,-52.64012 -1.63626,-9.64622 -1.9109,-39.54138 -0.36326,-39.54138 0.47889,0 0.891,1.4625 0.9158,3.25 0.18369,13.24239 2.361196,32.76227 4.992006,44.75 2.23472,10.18284 3.50512,13.88992 8.51756,24.85456 3.42264,7.48696 3.95562,8.16809 5.1323,6.55887 1.45195,-1.98565 1.60916,-10.69204 0.35056,-19.41343 -3.79085,-26.26833 -3.68291,-33.5 0.5,-33.5 2.51867,0 8.4645,10.93367 8.65155,15.90916 0.15211,4.04606 1.36705,3.8883 2.28627,-0.29688 0.40142,-1.82766 -0.14551,-4.99122 -1.51076,-8.73853 -11.98583,-32.89838 -13.78499,-39.80998 -15.52066,-59.62375 -0.47726,-5.44821 -0.34699,-7.75 0.4386,-7.75 0.63569,0 1.11748,1.71194 1.11748,3.97076 0,2.78543 0.89121,5.24819 2.98547,8.25 4.07405,5.83956 8.61157,24.27096 11.88559,48.27924 l 0.81822,6 1.66724,-3.7463 c 1.58734,-3.56678 1.56803,-4.04078 -0.40299,-9.89165 -1.39445,-4.13936 -1.74038,-6.4752 -1.05975,-7.15583 0.68063,-0.68063 1.40492,-0.14475 2.21886,1.64165 0.66462,1.45867 1.56127,2.65213 1.99255,2.65213 0.43129,0 -0.29103,-2.3625 -1.60517,-5.25 -4.80945,-10.56766 -11.1539,-38.42945 -9.19654,-40.38681 2.45421,-2.45421 7.51726,9.68547 9.48341,22.73834 l 0.81316,5.39847 1.73395,-3.26604 c 1.5796,-2.97531 1.60308,-3.70675 0.26372,-8.21686 -3.09959,-10.43745 -17.27286,-36.0264 -20.95339,-37.83002 -4.02174,-1.97083 -10.35471,-1.75156 -12.83755,0.44448 -3.514276,3.10832 -9.475756,12.99678 -10.652286,17.66919 -1.34274,5.33252 -4.19902,23.98805 -3.7426,24.44447 0.17977,0.17977 1.08235,-2.68077 2.00573,-6.35677 1.98846,-7.91609 4.37391,-13.93025 5.1983,-13.10587 0.32431,0.32431 -0.32668,3.43091 -1.44664,6.90354 -3.29808,10.22623 -5.817,20.43728 -8.5881,34.81388 -1.43118,7.425 -3.25713,16.875 -4.05767,21 -2.85872,14.73027 -4.68664,30.10365 -7.62171,64.10081 -1.87141,21.67665 -1.84606,21.78839 10.43346,45.99228 9.7755,19.26827 12.0123,24.90691 9.88035,24.90691 -0.43142,0 -1.52155,-1.2375 -2.42252,-2.75 -2.32068,-3.89581 -8.77341,-11.25 -9.87101,-11.25 -1.5079,0 -1.06948,5.00123 1.57792,18 1.375,6.75127 2.53553,12.55065 2.57895,12.88752 0.0434,0.33686 0.55214,-0.73752 1.13049,-2.38752 0.57835,-1.65 1.71249,-3.75979 2.52031,-4.68842 z m 14.270246,-12.31158 c 0,-0.275 0.225,-0.5 0.5,-0.5 0.275,0 0.5,0.225 0.5,0.5 0,0.275 -0.225,0.5 -0.5,0.5 -0.275,0 -0.5,-0.225 -0.5,-0.5 z m -9.999996,-32 c 0,-0.275 0.225,-0.5 0.5,-0.5 0.275,0 0.5,0.225 0.5,0.5 0,0.275 -0.225,0.5 -0.5,0.5 -0.275,0 -0.5,-0.225 -0.5,-0.5 z m -2,-1 c 0,-0.275 0.225,-0.5 0.5,-0.5 0.275,0 0.5,0.225 0.5,0.5 0,0.275 -0.225,0.5 -0.5,0.5 -0.275,0 -0.5,-0.225 -0.5,-0.5 z m 5,-1 c 0,-0.275 0.225,-0.5 0.5,-0.5 0.275,0 0.5,0.225 0.5,0.5 0,0.275 -0.225,0.5 -0.5,0.5 -0.275,0 -0.5,-0.225 -0.5,-0.5 z m 6.999996,-2 c 0,-0.275 0.225,-0.5 0.5,-0.5 0.275,0 0.5,0.225 0.5,0.5 0,0.275 -0.225,0.5 -0.5,0.5 -0.275,0 -0.5,-0.225 -0.5,-0.5 z m -3.999996,-25 c 0,-0.275 0.225,-0.5 0.5,-0.5 0.275,0 0.5,0.225 0.5,0.5 0,0.275 -0.225,0.5 -0.5,0.5 -0.275,0 -0.5,-0.225 -0.5,-0.5 z m -12,-91 c 0,-0.275 0.225,-0.5 0.5,-0.5 0.275,0 0.5,0.225 0.5,0.5 0,0.275 -0.225,0.5 -0.5,0.5 -0.275,0 -0.5,-0.225 -0.5,-0.5 z m 27.999996,-56 c 0,-0.275 0.225,-0.5 0.5,-0.5 0.275,0 0.5,0.225 0.5,0.5 0,0.275 -0.225,0.5 -0.5,0.5 -0.275,0 -0.5,-0.225 -0.5,-0.5 z m 0,-8 c 0,-0.275 0.225,-0.5 0.5,-0.5 0.275,0 0.5,0.225 0.5,0.5 0,0.275 -0.225,0.5 -0.5,0.5 -0.275,0 -0.5,-0.225 -0.5,-0.5 z m 16.51447,225.75 c 0.91101,-3.1625 2.94926,-8.47519 4.52944,-11.80598 1.58018,-3.33078 3.39173,-9.19665 4.02566,-13.03526 l 1.15261,-6.97929 -3.31926,-4.96474 c -1.82559,-2.7306 -4.5443,-6.12855 -6.04157,-7.55101 -2.5492,-2.4218 -2.65802,-2.86696 -1.7111,-7 3.02262,-13.193 3.01986,-13.23131 -2.33655,-32.41372 -2.76443,-9.9 -5.34342,-18.57967 -5.73108,-19.28816 -0.38766,-0.70849 -1.45276,3.31945 -2.36689,8.95097 l -1.66206,10.23914 2.47316,4.42498 c 2.98331,5.33772 3.2045,9.6994 0.57515,11.34146 -1.55174,0.96908 -1.68857,1.52906 -0.75,3.06937 0.92927,1.52505 0.80419,2.13922 -0.65645,3.22322 -1.71511,1.27285 -1.68609,1.45755 0.58593,3.72957 2.24582,2.24582 2.42832,3.31408 3.01727,17.66135 0.58817,14.32863 0.77968,15.45257 3.1035,18.21428 3.01162,3.57909 4.00036,9.41842 3.38747,20.00571 -0.25242,4.36046 -0.3403,7.92811 -0.19528,7.92811 0.14502,0 1.00904,-2.5875 1.92005,-5.75 z m 105.90987,-37.37668 c 9.86655,-5.04183 10.87907,-5.80095 9.67814,-7.256 -0.5072,-0.61453 -1.31843,-2.65209 -1.80273,-4.52792 -1.11983,-4.33741 -2.63661,-4.53592 -11.53428,-1.50963 -9.05761,3.08069 -11.02082,3.04203 -25.97894,-0.5117 -6.7875,-1.61256 -15.38318,-3.46172 -19.10153,-4.10924 -6.73365,-1.17261 -9.685,-2.84672 -9.685,-5.49367 0,-0.76559 2.76301,-4.34565 6.14002,-7.95568 5.45947,-5.83619 7.70394,-7.32335 20.25,-13.41736 7.76049,-3.76952 18.02892,-8.36791 22.81873,-10.21865 l 8.70875,-3.36499 0.70839,-5.50424 c 1.99517,-15.5026 -0.0708,-49.89004 -3.54692,-59.03854 -2.69508,-7.09286 -10.583,-17.59715 -14.14712,-18.83961 -1.66116,-0.57909 -4.43972,-2.08186 -6.17456,-3.33949 -1.73485,-1.25763 -5.17481,-2.9912 -7.64437,-3.85238 -2.46955,-0.86117 -4.67113,-2.10887 -4.8924,-2.77266 -0.24032,-0.72097 2.92502,0.007 7.86188,1.80916 8.99123,3.2814 11.19618,3.41564 5.20919,0.31715 -17.45813,-9.03522 -23.95085,-12.65404 -24.91453,-13.88649 -0.61762,-0.78987 -1.74262,-1.203 -2.5,-0.91806 -0.75738,0.28493 -7.00206,-2.23661 -13.87706,-5.60342 -6.875,-3.36681 -11.97111,-6.31841 -11.3247,-6.55912 0.64642,-0.2407 2.99099,0.48865 5.21016,1.62079 2.21918,1.13214 4.28062,2.05843 4.58098,2.05843 0.30036,0 -0.8391,-1.9125 -2.53214,-4.25 -3.94791,-5.45069 -13.84065,-13.69849 -16.4343,-13.70164 -1.46147,-0.002 -0.99027,0.58284 1.75,2.17117 2.0625,1.19547 3.75,2.55716 3.75,3.02597 0,0.46881 -2.95909,-0.80244 -6.57576,-2.82499 -5.87142,-3.28349 -6.83177,-3.54036 -8.96591,-2.39821 -1.88493,1.00879 -2.70091,1.02127 -3.86032,0.059 -0.94669,-0.78569 -2.11603,-0.90712 -3.28408,-0.34104 -0.99766,0.48349 -5.18893,0.60603 -9.31393,0.2723 -5.10853,-0.4133 -6.9273,-0.87066 -5.70392,-1.43436 0.98784,-0.45517 5.03784,-0.56266 9,-0.23888 6.74598,0.55128 7.01322,0.4985 4.20392,-0.83023 -2.12659,-1.00582 -6.63917,-1.39561 -15.5,-1.33886 -8.35359,0.0535 -11.08347,0.31052 -8.22966,0.77483 6.56517,1.06812 9.1659,3.76076 16.16604,16.73736 l 6.4681,11.9903 2.42219,-2.87861 c 3.2569,-3.87061 3.99958,-2.77684 0.94395,1.39017 l -2.43137,3.31572 2.12614,5.15405 c 1.77314,4.29831 2.40649,4.99715 3.81469,4.20909 1.31851,-0.73788 1.55897,-0.60728 1.09725,0.59595 -0.32522,0.8475 -1.0413,1.54091 -1.5913,1.54091 -0.55,0 -0.7463,0.66115 -0.43621,1.46921 0.59936,1.56192 -1.72198,17.57363 -2.86243,19.7439 -0.37193,0.70779 1.38439,-0.96311 3.90294,-3.71311 2.51855,-2.75 5.79936,-7.43507 7.29068,-10.41126 1.49132,-2.97619 2.87273,-4.92753 3.0698,-4.33632 0.51143,1.53428 -6.96312,16.02052 -10.64719,20.63508 -1.70699,2.13813 -3.10362,4.27563 -3.10362,4.75 0,2.43273 2.57255,-0.16362 10.29224,-10.3875 7.43776,-9.8505 12.66302,-15.25553 17.61227,-18.21825 2.47949,-1.48427 0.21484,1.27759 -5.1282,6.25411 -2.78373,2.59278 -8.20554,8.9063 -12.04846,14.03005 -3.84292,5.12375 -8.24249,10.24404 -9.77682,11.37842 -1.61987,1.19762 -2.56185,2.65626 -2.24636,3.47844 0.38233,0.99633 2.50685,-0.47586 7.16934,-4.96804 7.05136,-6.79378 10.26835,-8.96612 12.5816,-8.49597 0.78813,0.16018 2.15103,-0.60876 3.02866,-1.70876 1.06841,-1.33912 1.49987,-1.50434 1.30571,-0.5 -0.15949,0.825 -5.51107,9.375 -11.8924,19 -13.52232,20.39579 -16.12829,25.17844 -15.70667,28.82599 0.72223,6.2482 9.84903,2.47714 27.70565,-11.44758 6.74138,-5.25697 12.48706,-9.32813 12.76817,-9.04702 0.46827,0.46827 -14.04193,12.31961 -29.44547,24.04985 -9.44833,7.19518 -9.79152,7.98157 -7.2328,16.57328 l 2.11656,7.10701 6.58058,-5.78077 c 10.9358,-9.60663 15.11428,-14.1988 25.34934,-27.85908 13.44589,-17.94562 22.96706,-27.04916 22.96706,-21.95964 0,1.87667 -10.55885,14.51283 -30.44343,36.43276 -8.67879,9.56715 -16.40444,18.89019 -17.1681,20.71789 -1.78598,4.27445 -1.93114,24.44463 -0.18847,26.18731 1.80727,1.80727 7.55156,1.44844 9.59966,-0.59966 0.98982,-0.98981 3.64142,-5.15231 5.89245,-9.25 6.37048,-11.59658 12.42983,-19.13103 19.92262,-24.77261 8.24106,-6.20499 27.98102,-16.42773 31.72169,-16.42773 2.15098,0 3.3372,-1.07337 6.14237,-5.55802 1.91211,-3.05691 3.65,-6.03816 3.86198,-6.625 0.21198,-0.58684 0.70521,-0.7713 1.09606,-0.40991 2.01776,1.86565 -14.45792,23.9961 -34.20367,45.94301 -17.97519,19.97899 -21.8643,22.56259 -39.05456,25.94457 -4.18316,0.82298 -5.76903,1.58415 -5.81976,2.7933 -0.0383,0.91413 -0.40793,2.44955 -0.82127,3.41205 -0.66119,1.5396 -0.12174,1.75 4.48678,1.75 4.22289,0 6.74424,0.80239 13.00697,4.13931 l 7.76865,4.13931 3.00439,-2.13931 c 1.65241,-1.17662 4.38054,-2.13931 6.0625,-2.13931 2.91016,0 13.51037,3.40973 15.63314,5.02866 2.50509,1.91049 28.83392,8.60807 34.92434,8.88412 1.05838,0.048 5.55838,-1.76979 10,-4.03946 z m -91.42434,-68.37332 c 0,-0.275 0.225,-0.5 0.5,-0.5 0.275,0 0.5,0.225 0.5,0.5 0,0.275 -0.225,0.5 -0.5,0.5 -0.275,0 -0.5,-0.225 -0.5,-0.5 z m 13,-2 c 0,-0.275 0.225,-0.5 0.5,-0.5 0.275,0 0.5,0.225 0.5,0.5 0,0.275 -0.225,0.5 -0.5,0.5 -0.275,0 -0.5,-0.225 -0.5,-0.5 z m 18,-22 c 0,-0.275 0.225,-0.5 0.5,-0.5 0.275,0 0.5,0.225 0.5,0.5 0,0.275 -0.225,0.5 -0.5,0.5 -0.275,0 -0.5,-0.225 -0.5,-0.5 z m -6,-9 c 0,-0.275 0.225,-0.5 0.5,-0.5 0.275,0 0.5,0.225 0.5,0.5 0,0.275 -0.225,0.5 -0.5,0.5 -0.275,0 -0.5,-0.225 -0.5,-0.5 z m 20,-7 c 0,-0.275 0.225,-0.5 0.5,-0.5 0.275,0 0.5,0.225 0.5,0.5 0,0.275 -0.225,0.5 -0.5,0.5 -0.275,0 -0.5,-0.225 -0.5,-0.5 z m -42,-33 c 0,-0.275 0.225,-0.5 0.5,-0.5 0.275,0 0.5,0.225 0.5,0.5 0,0.275 -0.225,0.5 -0.5,0.5 -0.275,0 -0.5,-0.225 -0.5,-0.5 z m -7,-12 c 0,-0.275 0.225,-0.5 0.5,-0.5 0.275,0 0.5,0.225 0.5,0.5 0,0.275 -0.225,0.5 -0.5,0.5 -0.275,0 -0.5,-0.225 -0.5,-0.5 z m 47,-7 c 0,-0.275 0.225,-0.5 0.5,-0.5 0.275,0 0.5,0.225 0.5,0.5 0,0.275 -0.225,0.5 -0.5,0.5 -0.275,0 -0.5,-0.225 -0.5,-0.5 z m -26,-21 c 0,-0.275 0.225,-0.5 0.5,-0.5 0.275,0 0.5,0.225 0.5,0.5 0,0.275 -0.225,0.5 -0.5,0.5 -0.275,0 -0.5,-0.225 -0.5,-0.5 z m 85.57475,170.30325 c -1.85434,-2.64744 -2.00643,-2.01925 -0.45555,1.88165 0.61556,1.54831 1.32419,2.26419 1.57475,1.59086 0.25055,-0.67333 -0.25309,-2.23596 -1.1192,-3.47251 z m -28.30835,-9.64804 c 1.77848,-1.0932 6.1586,-2.73347 9.7336,-3.64504 7.19396,-1.83437 11.38726,-4.07456 10.45389,-5.58479 -0.71197,-1.15198 -4.88571,-0.5462 -15.74887,2.28584 -4.28724,1.11768 -8.01033,1.8168 -8.27354,1.55359 -1.17191,-1.17191 1.16089,-4.02765 5.24552,-6.4214 3.95677,-2.31883 5.20452,-2.54907 11.40843,-2.10519 6.07506,0.43467 6.90971,0.29147 6.52748,-1.11991 -0.24105,-0.89007 -0.71652,-3.27151 -1.0566,-5.2921 -0.57874,-3.43851 -0.92055,-3.73568 -5.33732,-4.64018 -8.41976,-1.72428 -16.12,-0.0321 -26.47708,5.81854 -17.33535,9.79261 -18.64045,11.77649 -11.99191,18.22892 2.93066,2.8442 5.38869,4.04953 11.25,5.51657 l 7.5,1.87718 1.7664,-2.24219 c 0.97152,-1.23321 3.22152,-3.13663 5,-4.22984 z m -22.2664,-12.65521 c 0,-0.275 0.225,-0.5 0.5,-0.5 0.275,0 0.5,0.225 0.5,0.5 0,0.275 -0.225,0.5 -0.5,0.5 -0.275,0 -0.5,-0.225 -0.5,-0.5 z m -9.40328,-18.96257 c 2.92132,-3.27941 5.12747,-6.14658 4.90256,-6.37149 -0.69739,-0.69738 -9.54395,4.87962 -13.7085,8.64204 -4.36032,3.9393 -9.22096,10.56308 -10.80105,14.71905 -0.81519,2.14411 0.50898,1.31147 6.6386,-4.17434 4.21131,-3.76898 10.04708,-9.53585 12.96839,-12.81526 z m 53.06556,15.21257 c -0.27741,-0.6875 -0.50438,-0.125 -0.50438,1.25 0,1.375 0.22697,1.9375 0.50438,1.25 0.27742,-0.6875 0.27742,-1.8125 0,-2.5 z m -106.66228,-19.9344 c 0,-0.65141 -0.74262,-3.83106 -1.65026,-7.06588 -1.10467,-3.93702 -1.92613,-5.44645 -2.48469,-4.56561 -1.37091,2.16193 -0.97585,8.21268 0.69166,10.59338 1.68644,2.40774 3.44329,2.93741 3.44329,1.03811 z M 14.231524,246.48527 c -3.0459,-2.56295 -5.6371,-3.19128 -6.61767,-1.60469 -0.30433,0.49242 1.13161,1.59424 3.19099,2.44847 5.52395,2.29137 6.78389,1.98112 3.42668,-0.84378 z m 244.286226,-12 c 0.0303,-8.69648 -0.0924,-9.19034 -3.63837,-14.64401 -4.28283,-6.58685 -19.15737,-23.42552 -22.0701,-24.98437 -2.53392,-1.35611 -2.53013,-1.34952 7.26437,12.62838 7.90698,11.2842 9.36835,14.44763 10.54765,22.83247 l 0.67968,4.83247 1.77383,-2.70405 1.77384,-2.70406 1.2081,2.25736 c 0.72933,1.36276 1.04711,4.78564 0.80188,8.63699 -0.29643,4.65532 -0.13135,5.90247 0.61074,4.61423 0.55933,-0.97098 1.0311,-5.81541 1.04838,-10.76541 z m -22.4686,-42.94098 c 0,-0.24254 -0.51953,-0.76207 -1.15451,-1.15451 -0.71529,-0.44208 -0.88306,-0.27432 -0.44098,0.44098 0.71244,1.15275 1.59549,1.54767 1.59549,0.71353 z m -3.4116,-7.30396 c -1.07549,-1.07549 -1.64645,0.43075 -0.89148,2.35181 0.70821,1.80207 0.76169,1.80519 1.11194,0.0649 0.20236,-1.00555 0.10316,-2.09305 -0.22046,-2.41667 z m -2.92173,-1.92173 c -0.36667,-0.36666 -0.96667,-0.36666 -1.33333,0 -0.36667,0.36667 -0.0667,0.66667 0.66666,0.66667 0.73334,0 1.03334,-0.3 0.66667,-0.66667 z m -24.11605,-4.56452 c -1.67061,-2.38514 -11.55062,-6.21121 -11.55062,-4.47302 0,0.5578 -0.82293,0.26944 -1.82874,-0.6408 -2.50924,-2.27084 -3.26177,-2.07399 -2.27466,0.59501 0.63582,1.71913 2.57473,2.76341 8.21778,4.426 9.35151,2.75521 9.30062,2.75457 7.43624,0.0928 z m 26.93495,-8.01881 c 0.6097,-6.50614 2.31432,-63.45439 1.93082,-64.50502 -0.0512,-0.14026 -3.76349,5.34118 -8.24954,12.18097 -4.68437,7.14215 -9.04244,12.71718 -10.23777,13.09656 -1.14472,0.36332 -4.6123,0.50689 -7.70574,0.31904 l -5.62443,-0.34155 -1.20972,5.99644 c -0.66535,3.29804 -0.88291,6.22304 -0.48347,6.5 0.39944,0.27696 2.30747,1.50543 4.24007,2.72993 4.18318,2.65049 6.30205,6.61157 7.97874,14.91573 0.99253,4.91573 1.77925,6.46056 3.94011,7.73701 1.48498,0.8772 5.10332,3.40075 8.04075,5.6079 2.93743,2.20714 5.6257,4.01299 5.97393,4.01299 0.34822,0 0.98103,-3.7125 1.40625,-8.25 z m -47.09445,0.5 c -0.35584,-1.5125 -1.47256,-4.775 -2.48161,-7.25 -1.956,-4.79773 -5.28507,-17.66946 -6.42745,-24.85148 -0.65419,-4.1129 -0.99498,-4.48542 -6.21547,-6.79417 -3.03784,-1.34347 -8.4332,-3.11752 -11.9897,-3.94233 -7.00169,-1.6238 -8.59911,-1.15011 -9.87516,2.92829 -0.37165,1.18783 -1.95708,4.03061 -3.52319,6.31728 l -2.84746,4.15759 2.9398,1.02482 c 4.23916,1.47778 13.98449,8.30216 20.71626,14.50701 8.99603,8.29188 18.73128,16.54567 19.58192,16.60203 0.42297,0.028 0.4779,-1.18654 0.12206,-2.69904 z m -27.39112,-24.75 c 0,-0.275 0.225,-0.5 0.5,-0.5 0.275,0 0.5,0.225 0.5,0.5 0,0.275 -0.225,0.5 -0.5,0.5 -0.275,0 -0.5,-0.225 -0.5,-0.5 z m 10,-12 c 0,-0.275 0.225,-0.5 0.5,-0.5 0.275,0 0.5,0.225 0.5,0.5 0,0.275 -0.225,0.5 -0.5,0.5 -0.275,0 -0.5,-0.225 -0.5,-0.5 z m 31.92694,18.54515 c 0.75535,-0.46683 -1.20561,-2.75619 -5.50347,-6.42512 -3.67233,-3.13493 -6.77492,-5.56941 -6.89466,-5.40995 -0.55129,0.73415 1.43382,17.5848 2.53489,21.51742 l 1.23455,4.40938 3.72761,-6.68324 c 2.05018,-3.67578 4.25567,-7.0096 4.90108,-7.40849 z m -6.92694,-3.54515 c 0,-0.275 0.225,-0.5 0.5,-0.5 0.275,0 0.5,0.225 0.5,0.5 0,0.275 -0.225,0.5 -0.5,0.5 -0.275,0 -0.5,-0.225 -0.5,-0.5 z m 17.06759,3.62629 c -1.25668,-2.34813 -7.87466,-7.65255 -8.61897,-6.90824 -0.27332,0.27332 0.18893,1.06617 1.02722,1.76189 0.83829,0.69572 1.52416,1.93299 1.52416,2.74949 0,0.90081 0.5828,1.26091 1.48216,0.91579 0.87063,-0.33409 2.21154,0.40653 3.25,1.79507 2.08708,2.79069 2.89531,2.60065 1.33543,-0.314 z m -62.59822,-7.29123 c -5.90575,-2.65223 -8.75161,-2.27551 -3.43126,0.4542 2.45404,1.2591 5.12311,2.07307 5.93126,1.80884 0.92834,-0.30354 0.008,-1.13679 -2.5,-2.26304 z m -6.46937,1.27352 c 0,-1.09202 -7.38274,-4.13805 -9.77023,-4.03108 -0.95137,0.0426 0.37591,0.83013 2.94952,1.75 2.5736,0.91988 5.0111,2.01 5.41666,2.4225 0.9737,0.99036 1.40405,0.94702 1.40405,-0.14142 z m 33.80598,-19.85858 c -0.95051,-6.36057 -2.84478,-65.309024 -2.13683,-66.496968 0.57662,-0.967592 -4.71353,1.03892 -6.37537,2.418123 -0.69946,0.580507 -1.02515,1.45448 -0.72375,1.942161 0.3014,0.487681 -0.15355,0.886693 -1.01101,0.886693 -0.85746,0 -1.55902,0.690833 -1.55902,1.535184 0,1.23054 -0.40098,1.320584 -2.02066,0.453756 -1.11137,-0.594786 -2.41337,-0.838728 -2.89333,-0.542095 -0.47996,0.296633 -1.15748,-0.595471 -1.50559,-1.982455 -0.39545,-1.575606 -1.97415,-3.161372 -4.20759,-4.226425 -3.56985,-1.702344 -3.57789,-1.700885 -5.97374,1.084462 -1.3195,1.534005 -2.38147,3.551507 -2.35995,4.483337 0.0217,0.940461 0.64516,0.301704 1.40125,-1.435716 0.74916,-1.721474 1.85278,-3.4332 2.45248,-3.803837 1.83803,-1.135964 6.10713,4.028745 6.10713,7.388334 0,1.675 0.49815,3.045455 1.10699,3.045455 0.60885,0 0.84114,0.69279 0.51622,1.539533 -0.32493,0.846743 -0.077,2.362133 0.55083,3.367534 0.62788,1.005401 0.8362,2.623865 0.46293,3.596587 -0.59854,1.559777 -0.88282,1.598246 -2.40782,0.325827 -0.95103,-0.793517 -2.96665,-1.970123 -4.47915,-2.614681 -3.53066,-1.504607 -3.63801,-5.031926 -0.25,-8.2148 3.00992,-2.827669 3.65833,-6.358246 0.67126,-3.654988 -1.0058,0.910244 -2.3558,1.654988 -3,1.654988 -0.64419,0 -1.17126,1.125 -1.17126,2.5 0,3.111715 -1.70724,3.297748 -2.29426,0.25 -0.3379,-1.75434 -0.46337,-1.584108 -0.56955,0.772752 -0.1739,3.859946 6.23699,14.870613 9.5326,16.372193 1.33393,0.60778 3.28309,1.10505 4.33147,1.10505 1.30696,0 2.55338,1.46315 3.96508,4.65454 2.46343,5.56899 2.00717,6.58759 -1.25303,2.79738 l -2.39027,-2.77885 -0.627,9.913466 c -0.34486,5.4524 -0.92264,12.64197 -1.28397,15.97682 l -0.65696,6.06335 5.37294,1.25803 c 3.98026,0.93194 14.44847,5.01749 15.45558,6.03203 0.0454,0.0458 -0.30405,-2.50427 -0.77665,-5.66677 z m 42.456,2 c 3.26932,-3.63961 14.16559,-20.99151 16.79789,-26.75 2.40478,-5.260746 5.09866,-20.755552 3.11184,-17.898876 -1.03682,1.49077 -2.72274,1.10693 -6.09766,-1.38825 -2.54514,-1.881699 -2.9773,-2.750154 -2.43794,-4.899151 0.46032,-1.834028 0.31429,-2.401091 -0.49026,-1.90385 -0.63022,0.389494 -1.14585,0.525467 -1.14585,0.302163 0,-0.867948 3.57776,-4.428928 5,-4.976561 1.11299,-0.428551 0.98398,-0.618896 -0.5,-0.737738 -1.62001,-0.129735 -1.43001,-0.421158 1,-1.533843 l 3,-1.373677 -3.35699,-0.0451 c -2.49205,-0.03348 -3.21536,-0.414183 -2.80729,-1.477581 0.30233,-0.787862 0.82082,-4.275362 1.1522,-7.75 l 0.6025,-6.317527 -1.55934,3.39843 c -1.42704,3.11008 -5.85665,8.10157 -7.18959,8.10157 -0.3055,0 -0.28143,-0.7875 0.0535,-1.75 0.44151,-1.268794 0.0831,-1.131306 -1.3033,0.5 -2.36728,2.785382 -3.42888,2.887787 -2.59168,0.25 0.35923,-1.131815 0.1797,-2 -0.41356,-2 -0.57658,0 -1.34142,-1.167759 -1.69964,-2.595021 -0.45785,-1.824198 -0.88834,-2.211502 -1.44928,-1.303882 -0.43888,0.710126 -0.34291,2.141427 0.21328,3.180667 1.28026,2.392192 0.0404,3.811299 -1.27549,1.459906 -0.53609,-0.957919 -1.58984,-1.74167 -2.34167,-1.74167 -0.75184,0 -1.54354,-0.529673 -1.75933,-1.177051 -0.22405,-0.672139 -0.93474,-0.841834 -1.65678,-0.395592 -0.94377,0.583286 -0.73817,1.150061 0.81077,2.234983 1.14136,0.799439 2.60088,1.128636 3.24339,0.731548 0.78466,-0.484951 0.95854,-0.175669 0.52963,0.942067 -0.41695,1.086546 -0.12888,1.664045 0.83006,1.664045 0.80774,0 1.46861,0.45 1.46861,1 0,0.55 -0.5051,1 -1.12244,1 -0.7676,0 -0.72255,0.481847 0.1425,1.524166 0.69572,0.838291 0.99067,1.79844 0.65545,2.133664 -0.33523,0.335224 -2.05715,-1.025651 -3.8265,-3.024166 -3.79858,-4.290569 -5.779,-4.718268 -5.08706,-1.098623 0.30334,1.586815 -0.18055,3.27003 -1.29366,4.5 -1.74058,1.923323 -1.69022,1.964959 2.37673,1.964959 2.28524,0 4.15498,0.421324 4.15498,0.936276 0,1.144394 -8.39231,0.459316 -10.91549,-0.891049 -1.00185,-0.536173 -2.10571,-0.690692 -2.45302,-0.343377 -0.34732,0.347316 -0.63149,0.106483 -0.63149,-0.535183 0,-0.641667 -0.94814,-1.166667 -2.10699,-1.166667 -1.49337,0 -1.93355,-0.451967 -1.51145,-1.551938 0.3415,-0.889925 0.17385,-1.291322 -0.39301,-0.940983 -0.5437,0.336025 -0.98855,-0.0906 -0.98855,-0.948062 0,-1.862032 1.14959,-2.009432 2.8,-0.359017 0.83581,0.835812 1.2,0.860633 1.2,0.08179 0,-0.615016 0.22998,-1.717516 0.51106,-2.45 0.34196,-0.891151 -0.31976,-1.331787 -2,-1.331787 -1.38108,0 -2.51106,0.4275 -2.51106,0.95 0,0.546563 -0.43859,0.511408 -1.03278,-0.08278 -1.20606,-1.206061 -0.18481,-4.619728 1.13757,-3.802456 0.49237,0.3043 0.89521,-0.121727 0.89521,-0.946727 0,-2.909148 -1.79881,-2.561783 -3.31855,0.64084 -1.79771,3.788398 -4.20382,44.011541 -3.08764,51.616371 1.28144,8.73081 2.26104,10.15308 9.90619,14.38283 10.62905,5.88061 17.82299,7.2638 20.76198,3.99192 z m -0.26198,-2.75 c 0,-0.275 0.225,-0.5 0.5,-0.5 0.275,0 0.5,0.225 0.5,0.5 0,0.275 -0.225,0.5 -0.5,0.5 -0.275,0 -0.5,-0.225 -0.5,-0.5 z m 3,-18.5 c -1.16887,-0.75538 -0.89293,-0.97275 1.25,-0.98469 1.5125,-0.008 2.75,0.43469 2.75,0.98469 0,1.26441 -2.04346,1.26441 -4,0 z m 8,0.5 c 0,-0.275 0.225,-0.5 0.5,-0.5 0.275,0 0.5,0.225 0.5,0.5 0,0.275 -0.225,0.5 -0.5,0.5 -0.275,0 -0.5,-0.225 -0.5,-0.5 z m -17.25,-3.6601 c -2.6125,-1.15218 -4.75,-2.525 -4.75,-3.05072 0,-0.52572 0.33961,-0.805846 0.75469,-0.62251 0.41507,0.18333 2.89007,1.18197 5.5,2.21919 2.60992,1.03722 4.74531,2.27472 4.74531,2.75 0,1.24422 -0.92536,1.05234 -6.25,-1.29596 z m -6.75,-1.3399 c 0,-0.275 0.225,-0.5 0.5,-0.5 0.275,0 0.5,0.225 0.5,0.5 0,0.275 -0.225,0.5 -0.5,0.5 -0.275,0 -0.5,-0.225 -0.5,-0.5 z m 21.02778,-4.249996 c 0.0153,-0.4125 1.36528,-2.0625 3,-3.66667 3.55588,-3.48941 3.92338,-2.2358 0.48859,1.66667 -2.42909,2.75984 -3.54033,3.3969 -3.48859,2 z m -3.02778,-5.25 c 0,-0.55 0.675,-1 1.5,-1 0.825,0 1.5,0.45 1.5,1 0,0.55 -0.675,1 -1.5,1 -0.825,0 -1.5,-0.45 -1.5,-1 z m 5.64235,-6.62381 c -0.95044,-1.99309 -1.50803,-3.84384 -1.23909,-4.11278 0.51211,-0.51211 4.58652,5.68562 4.59301,6.98659 0.01,1.93915 -1.79697,0.39113 -3.35392,-2.87381 z M 193.04915,70.485279 c 0,-0.275 0.225,-0.5 0.5,-0.5 0.275,0 0.5,0.225 0.5,0.5 0,0.275 -0.225,0.5 -0.5,0.5 -0.275,0 -0.5,-0.225 -0.5,-0.5 z m 45.29967,8.75 c 0.53514,-2.762021 -1.50443,-6.25 -3.65465,-6.25 -0.64058,0 -0.5806,0.464416 0.15498,1.2 0.66,0.66 1.2,2.145 1.2,3.3 0,1.155 -0.54,2.64 -1.2,3.3 -0.93333,0.933325 -0.73701,1.199995 0.88343,1.199995 1.47699,0 2.23851,-0.800452 2.61624,-2.749995 z m -6.29967,0.25 c 0,-0.275 -0.225,-0.5 -0.5,-0.5 -0.275,0 -0.5,0.225 -0.5,0.5 0,0.275 0.225,0.5 0.5,0.5 0.275,0 0.5,-0.225 0.5,-0.5 z m 17.88844,-6.75 c 0.99181,-2.973367 0.95758,-3.084775 -0.40218,-1.30887 -0.81744,1.067621 -1.48626,2.530121 -1.48626,3.25 0,2.229952 0.75649,1.452356 1.88844,-1.94113 z m -2.88844,0.75 c 0,-0.275 -0.225,-0.5 -0.5,-0.5 -0.275,0 -0.5,0.225 -0.5,0.5 0,0.275 0.225,0.5 0.5,0.5 0.275,0 0.5,-0.225 0.5,-0.5 z m -6.5,-1.5 c 0.33992,-0.55 0.39304,-1 0.11804,-1 -0.275,0 -0.77812,0.45 -1.11804,1 -0.33992,0.55 -0.39303,1 -0.11803,1 0.275,0 0.77811,-0.45 1.11803,-1 z m -1.5,-1.5 c 0,-0.275 -0.225,-0.5 -0.5,-0.5 -0.275,0 -0.5,0.225 -0.5,0.5 0,0.275 0.225,0.5 0.5,0.5 0.275,0 0.5,-0.225 0.5,-0.5 z m -3.33333,-1.166667 c -0.36667,-0.366666 -0.96667,-0.366666 -1.33333,0 -0.36667,0.366667 -0.0667,0.666667 0.66666,0.666667 0.73334,0 1.03334,-0.3 0.66667,-0.666667 z m -34.66667,-0.774316 c 0,-0.242541 -0.51953,-0.762069 -1.15451,-1.154509 -0.71529,-0.442079 -0.88306,-0.274316 -0.44098,0.440984 0.71244,1.152752 1.59549,1.547665 1.59549,0.713525 z m 36,-2.059017 c 0,-0.275 -0.225,-0.5 -0.5,-0.5 -0.275,0 -0.5,0.225 -0.5,0.5 0,0.275 0.225,0.5 0.5,0.5 0.275,0 0.5,-0.225 0.5,-0.5 z m -41.33333,-9.166667 c -0.36667,-0.366666 -0.66667,-0.06667 -0.66667,0.666667 0,0.733333 0.3,1.033333 0.66667,0.666667 0.36667,-0.366667 0.36667,-0.966667 0,-1.333334 z m 5.22455,-0.583333 c 0.46295,-1.2375 1.19172,-3.371471 1.6195,-4.742158 0.68202,-2.185328 0.58489,-2.332079 -0.78888,-1.191948 -2.64303,2.193518 -4.12925,8.184106 -2.03042,8.184106 0.19695,0 0.73686,-1.0125 1.1998,-2.25 z m 5.10878,1.25 c 0,-0.55 -0.42344,-1 -0.94098,-1 -0.51754,0 -1.2191,0.45 -1.55902,1 -0.33992,0.55 0.0835,1 0.94099,1 0.85746,0 1.55901,-0.45 1.55901,-1 z m 5.5,-3 c 0.33992,-0.55 0.39304,-1 0.11804,-1 -0.275,0 -0.77812,0.45 -1.11804,1 -0.33992,0.55 -0.39303,1 -0.11803,1 0.275,0 0.77811,-0.45 1.11803,-1 z"
       id="path1" /></g></svg>
